<svg width="506" height="147" viewBox="0 0 506 147" fill="none" xmlns="http://www.w3.org/2000/svg">
<rect width="505.048" height="147" rx="5" fill="#1F2937"/>
<path fill-rule="evenodd" clip-rule="evenodd" d="M151.893 47.9609H140.363L157.953 73.3193L140.337 99.0283H151.822L167.614 75.9803C168.726 74.3583 168.72 72.2184 167.599 70.6028L151.893 47.9609Z" fill="#A5A8F3"/>
<path fill-rule="evenodd" clip-rule="evenodd" d="M131.572 47.9609H120.041L137.632 73.3193L120.016 99.0283H131.5L147.293 75.9803C148.404 74.3583 148.398 72.2184 147.278 70.6028L131.572 47.9609Z" fill="#797DED"/>
<path d="M78.0619 57.0844L79.628 55.5154C83.5254 51.6107 88.7917 49.4199 94.2802 49.4199C100.971 49.4199 107.254 52.6707 111.165 58.1562L116.952 66.2724L121.758 73.4949L116.952 80.7174L111.165 88.8336C107.254 94.3191 100.971 97.5699 94.2802 97.5699C88.7917 97.5699 83.5254 95.3791 79.628 91.4745L78.0619 89.9054C73.7304 85.5659 71.2939 79.6581 71.2939 73.4949C71.2939 67.3318 73.7304 61.4239 78.0619 57.0844Z" stroke="#99C97D" stroke-width="9.47396"/>
<path d="M202.611 99.6426C202.183 99.6426 201.921 99.4286 201.826 99.0006L200.257 90.7972C200.257 90.7021 200.209 90.6308 200.114 90.5832C200.066 90.5357 199.995 90.5119 199.9 90.5119H188.273C188.177 90.5119 188.082 90.5357 187.987 90.5832C187.94 90.6308 187.916 90.7021 187.916 90.7972L186.418 99.0006C186.37 99.4286 186.109 99.6426 185.633 99.6426H180.212C179.974 99.6426 179.784 99.5712 179.641 99.4286C179.546 99.2859 179.522 99.0957 179.57 98.8579L190.199 50.3512C190.294 49.9232 190.555 49.7092 190.983 49.7092H197.332C197.807 49.7092 198.069 49.9232 198.117 50.3512L208.817 98.8579V99.0006C208.817 99.4286 208.603 99.6426 208.175 99.6426H202.611ZM189.129 84.8052C189.129 84.9955 189.2 85.0906 189.343 85.0906H198.83C198.973 85.0906 199.044 84.9955 199.044 84.8052L194.193 59.4819C194.146 59.3868 194.098 59.3392 194.051 59.3392C194.003 59.3392 193.955 59.3868 193.908 59.4819L189.129 84.8052ZM233.965 99.6426C233.537 99.6426 233.252 99.4524 233.109 99.0719L226.546 77.8146C226.499 77.6719 226.404 77.6006 226.261 77.6006H221.268C221.077 77.6006 220.982 77.6957 220.982 77.8859V98.9292C220.982 99.4048 220.744 99.6426 220.269 99.6426H214.848C214.372 99.6426 214.134 99.4048 214.134 98.9292V50.4226C214.134 49.947 214.372 49.7092 214.848 49.7092H227.616C230.042 49.7092 232.182 50.3037 234.036 51.4926C235.891 52.6815 237.318 54.3697 238.316 56.5572C239.362 58.6972 239.886 61.1464 239.886 63.9046C239.886 66.9006 239.267 69.5161 238.031 71.7512C236.794 73.9388 235.106 75.5319 232.966 76.5306C232.824 76.6732 232.776 76.8159 232.824 76.9586L240.1 98.8579L240.171 99.1432C240.171 99.4761 239.957 99.6426 239.529 99.6426H233.965ZM221.268 55.6299C221.077 55.6299 220.982 55.725 220.982 55.9152V71.8939C220.982 72.0841 221.077 72.1792 221.268 72.1792H226.546C228.496 72.1792 230.065 71.4421 231.254 69.9679C232.443 68.4461 233.038 66.4488 233.038 63.9759C233.038 61.4079 232.443 59.3868 231.254 57.9126C230.065 56.3908 228.496 55.6299 226.546 55.6299H221.268ZM258.299 100.213C254.447 100.213 251.332 99.0719 248.954 96.7892C246.624 94.5066 245.459 91.4868 245.459 87.7299V61.6219C245.459 57.865 246.624 54.8452 248.954 52.5626C251.332 50.2799 254.447 49.1386 258.299 49.1386C262.151 49.1386 265.265 50.2799 267.643 52.5626C270.021 54.8452 271.21 57.8888 271.21 61.6932V64.6892C271.21 65.1648 270.972 65.4026 270.497 65.4026H265.075C264.6 65.4026 264.362 65.1648 264.362 64.6892V61.5506C264.362 59.6008 263.791 58.0315 262.65 56.8426C261.556 55.6537 260.106 55.0592 258.299 55.0592C256.491 55.0592 255.017 55.6537 253.876 56.8426C252.782 58.0315 252.235 59.6008 252.235 61.5506V87.8012C252.235 89.751 252.782 91.3204 253.876 92.5092C255.017 93.6981 256.491 94.2926 258.299 94.2926C260.106 94.2926 261.556 93.6981 262.65 92.5092C263.791 91.3204 264.362 89.751 264.362 87.8012V79.9546C264.362 79.7644 264.267 79.6692 264.077 79.6692H258.655C258.18 79.6692 257.942 79.4315 257.942 78.9559V74.5332C257.942 74.0577 258.18 73.8199 258.655 73.8199H270.497C270.972 73.8199 271.21 74.0577 271.21 74.5332V87.7299C271.21 91.4868 270.021 94.5066 267.643 96.7892C265.265 99.0719 262.151 100.213 258.299 100.213ZM291.043 100.213C287.143 100.213 284.005 99.0244 281.627 96.6466C279.249 94.2688 278.06 91.1064 278.06 87.1592V62.2639C278.06 58.3168 279.249 55.1544 281.627 52.7766C284.005 50.3512 287.143 49.1386 291.043 49.1386C294.99 49.1386 298.152 50.3512 300.53 52.7766C302.955 55.1544 304.168 58.3168 304.168 62.2639V87.1592C304.168 91.1064 302.955 94.2688 300.53 96.6466C298.152 99.0244 294.99 100.213 291.043 100.213ZM291.043 94.2926C292.945 94.2926 294.467 93.6744 295.608 92.4379C296.749 91.1539 297.32 89.4895 297.32 87.4446V61.9072C297.32 59.8624 296.749 58.2217 295.608 56.9852C294.467 55.7012 292.945 55.0592 291.043 55.0592C289.188 55.0592 287.69 55.7012 286.549 56.9852C285.455 58.2217 284.908 59.8624 284.908 61.9072V87.4446C284.908 89.4895 285.455 91.1539 286.549 92.4379C287.69 93.6744 289.188 94.2926 291.043 94.2926ZM332.125 50.4226C332.125 49.947 332.362 49.7092 332.838 49.7092H338.188C338.663 49.7092 338.901 49.947 338.901 50.4226V98.9292C338.901 99.4048 338.663 99.6426 338.188 99.6426H332.053C331.673 99.6426 331.411 99.4524 331.269 99.0719L319.142 66.4726C319.094 66.3775 319.023 66.3537 318.928 66.4012C318.833 66.4012 318.785 66.4488 318.785 66.5439L318.857 98.9292C318.857 99.4048 318.619 99.6426 318.143 99.6426H312.722C312.246 99.6426 312.009 99.4048 312.009 98.9292V50.4226C312.009 49.947 312.246 49.7092 312.722 49.7092H318.785C319.166 49.7092 319.427 49.8995 319.57 50.2799L331.768 82.8792C331.815 83.0219 331.887 83.0932 331.982 83.0932C332.077 83.0457 332.125 82.9506 332.125 82.8079V50.4226ZM367.29 99.6426C366.862 99.6426 366.601 99.4286 366.506 99.0006L364.936 90.7972C364.936 90.7021 364.889 90.6308 364.794 90.5832C364.746 90.5357 364.675 90.5119 364.58 90.5119H352.952C352.857 90.5119 352.762 90.5357 352.667 90.5832C352.619 90.6308 352.596 90.7021 352.596 90.7972L351.098 99.0006C351.05 99.4286 350.788 99.6426 350.313 99.6426H344.892C344.654 99.6426 344.464 99.5712 344.321 99.4286C344.226 99.2859 344.202 99.0957 344.25 98.8579L354.878 50.3512C354.973 49.9232 355.235 49.7092 355.663 49.7092H362.012C362.487 49.7092 362.749 49.9232 362.796 50.3512L373.496 98.8579V99.0006C373.496 99.4286 373.282 99.6426 372.854 99.6426H367.29ZM353.808 84.8052C353.808 84.9955 353.88 85.0906 354.022 85.0906H363.51C363.652 85.0906 363.724 84.9955 363.724 84.8052L358.873 59.4819C358.825 59.3868 358.778 59.3392 358.73 59.3392C358.683 59.3392 358.635 59.3868 358.588 59.4819L353.808 84.8052ZM391.369 100.213C387.469 100.213 384.33 98.9292 381.953 96.3612C379.622 93.7457 378.457 90.3217 378.457 86.0892V50.4226C378.457 49.947 378.695 49.7092 379.171 49.7092H384.592C385.068 49.7092 385.305 49.947 385.305 50.4226V86.8026C385.305 89.0377 385.852 90.8448 386.946 92.2239C388.087 93.603 389.562 94.2926 391.369 94.2926C393.223 94.2926 394.698 93.603 395.791 92.2239C396.933 90.8448 397.503 89.0377 397.503 86.8026V50.4226C397.503 49.947 397.741 49.7092 398.217 49.7092H403.638C404.114 49.7092 404.351 49.947 404.351 50.4226V86.0892C404.351 90.3217 403.162 93.7457 400.785 96.3612C398.407 98.9292 395.268 100.213 391.369 100.213ZM436.848 49.7092C437.324 49.7092 437.561 49.947 437.561 50.4226V54.9166C437.561 55.3921 437.324 55.6299 436.848 55.6299H427.503C427.313 55.6299 427.218 55.725 427.218 55.9152V98.9292C427.218 99.4048 426.98 99.6426 426.505 99.6426H421.083C420.608 99.6426 420.37 99.4048 420.37 98.9292V55.9152C420.37 55.725 420.275 55.6299 420.085 55.6299H411.239C410.764 55.6299 410.526 55.3921 410.526 54.9166V50.4226C410.526 49.947 410.764 49.7092 411.239 49.7092H436.848Z" fill="#FCFCFD"/>
</svg>
